<svg width="243" height="224" viewBox="0 0 243 224" fill="none" xmlns="http://www.w3.org/2000/svg">
<rect width="243" height="224" fill="#D7A94F"/>
<circle cx="122" cy="112" r="94.5" stroke="white"/>
<path d="M127.712 127.761C132.618 124.007 139.698 118.131 142.649 113.432C144.856 109.921 145.575 105.571 144.614 101.527C142.563 92.3145 131.202 88.5501 124.126 94.7237C123.728 95.0687 123.361 95.451 122.984 95.8437C122.831 96.0039 122.675 96.1658 122.515 96.3276C122.356 96.1658 122.2 96.0039 122.047 95.8436C121.67 95.451 121.303 95.0687 120.905 94.7237C113.829 88.5501 102.468 92.3145 100.417 101.527C99.4563 105.571 100.175 109.921 102.382 113.432C105.333 118.131 112.413 124.007 117.319 127.761C118.686 128.807 122.515 131.531 122.515 131.531C122.515 131.531 126.345 128.807 127.712 127.761Z" fill="white"/>
<path d="M55.314 86.2804L40.7871 76.6042L41.9588 74.845L54.9252 83.4818L59.4231 76.7291L60.9837 77.7685L55.314 86.2804Z" fill="white"/>
<path d="M70.2087 68.4018C69.3339 69.1964 68.3773 69.6854 67.3387 69.8688C66.3044 70.0484 65.2622 69.9319 64.2121 69.5195C63.1662 69.1032 62.1886 68.3946 61.2794 67.3936C60.3626 66.3842 59.7452 65.3369 59.4273 64.2517C59.1136 63.1627 59.0956 62.112 59.3736 61.0997C59.6557 60.0835 60.2341 59.1781 61.1089 58.3835C61.9837 57.5889 62.9383 57.1018 63.9726 56.9223C65.0111 56.7388 66.0552 56.8574 67.105 57.2779C68.1589 57.6945 69.1443 58.4076 70.0612 59.4169C70.9704 60.4179 71.5799 61.4608 71.8898 62.5456C72.2039 63.6266 72.2199 64.6752 71.9378 65.6914C71.6599 66.7037 71.0835 67.6072 70.2087 68.4018ZM68.9939 67.0643C69.6584 66.4607 70.0505 65.7938 70.17 65.0634C70.2896 64.3331 70.2002 63.5968 69.9021 62.8544C69.6039 62.112 69.1606 61.417 68.5723 60.7693C67.984 60.1216 67.3327 59.6117 66.6186 59.2395C65.9044 58.8673 65.1762 58.7036 64.4339 58.7484C63.6917 58.7932 62.9883 59.1174 62.3238 59.721C61.6592 60.3246 61.2691 60.9937 61.1534 61.7282C61.0377 62.4627 61.1308 63.2033 61.4328 63.9499C61.7348 64.6964 62.18 65.3935 62.7683 66.0412C63.3566 66.6889 64.0059 67.1968 64.7163 67.5647C65.4266 67.9327 66.151 68.0922 66.8895 68.0432C67.6279 67.9942 68.3294 67.6679 68.9939 67.0643Z" fill="white"/>
<path d="M84.3388 42.9798L86.2505 56.8056L84.4473 57.7711L74.0003 48.5155L75.9237 47.4856L84.0336 54.9763L84.1538 54.9119L82.4154 44.0097L84.3388 42.9798Z" fill="white"/>
<path d="M103.075 50.6668C101.853 50.9815 100.73 50.9833 99.7055 50.6722C98.6848 50.3543 97.8097 49.77 97.0802 48.9194C96.3547 48.0619 95.8247 46.9839 95.4903 45.6853C95.1558 44.3868 95.0976 43.1814 95.3157 42.0691C95.5378 40.9499 96.0038 40.0026 96.7135 39.2272C97.4273 38.4449 98.3564 37.9064 99.5009 37.6116C100.161 37.4415 100.841 37.3836 101.542 37.4379C102.242 37.4921 102.92 37.6988 103.576 38.058C104.231 38.4116 104.819 38.9524 105.341 39.6805C105.863 40.4085 106.276 41.364 106.581 42.547L106.793 43.3724L97.0214 45.8894L96.5877 44.2057L104.379 42.1989C104.195 41.4836 103.887 40.8822 103.456 40.3947C103.031 39.9057 102.516 39.5663 101.909 39.3763C101.308 39.1849 100.656 39.1799 99.9515 39.3613C99.1757 39.5611 98.5541 39.9266 98.0865 40.4577C97.6231 40.9819 97.3187 41.5884 97.1734 42.2771C97.0281 42.9658 97.0455 43.6595 97.2255 44.3583L97.5146 45.4808C97.7612 46.4381 98.1353 47.2072 98.6369 47.7879C99.1426 48.3617 99.7373 48.7454 100.421 48.939C101.103 49.1271 101.837 49.1198 102.624 48.9171C103.136 48.7853 103.58 48.5947 103.955 48.3454C104.335 48.0891 104.639 47.7762 104.867 47.4066C105.093 47.0316 105.232 46.6027 105.283 46.12L107.301 46.1635C107.267 46.8528 107.079 47.4997 106.736 48.1044C106.392 48.7036 105.91 49.2265 105.292 49.6733C104.672 50.1145 103.933 50.4457 103.075 50.6668Z" fill="white"/>
<path d="M115.819 48.2886L114.995 35.2237L117.002 35.097L117.826 48.1619L115.819 48.2886ZM115.878 32.9818C115.487 33.0065 115.141 32.8945 114.84 32.6459C114.546 32.3969 114.387 32.0853 114.363 31.711C114.339 31.3368 114.458 31.0076 114.719 30.7236C114.986 30.4391 115.315 30.2846 115.706 30.2599C116.097 30.2352 116.44 30.3474 116.735 30.5963C117.035 30.845 117.197 31.1564 117.221 31.5307C117.245 31.9049 117.123 32.2342 116.856 32.5186C116.595 32.8027 116.269 32.9571 115.878 32.9818Z" fill="white"/>
<path d="M136.752 39.0766L134.897 39.3685C134.82 39.0559 134.689 38.7454 134.503 38.4368C134.323 38.1233 134.058 37.8511 133.708 37.6202C133.358 37.3892 132.893 37.2388 132.312 37.1689C131.516 37.0732 130.831 37.1767 130.257 37.4796C129.689 37.7775 129.371 38.2057 129.304 38.7642C129.244 39.2606 129.378 39.6744 129.704 40.0055C130.031 40.3367 130.566 40.6443 131.31 40.9284L133.182 41.6344C134.31 42.0563 135.124 42.592 135.624 43.2416C136.125 43.8855 136.32 44.6616 136.211 45.5699C136.121 46.3145 135.827 46.9543 135.328 47.4894C134.834 48.0252 134.186 48.4165 133.384 48.6633C132.581 48.9102 131.675 48.9728 130.666 48.8513C129.34 48.6918 128.277 48.2721 127.478 47.5922C126.678 46.9123 126.23 46.0056 126.131 44.8721L128.084 44.6263C128.18 45.3475 128.458 45.9132 128.918 46.3234C129.384 46.7342 130.026 46.9888 130.844 47.0872C131.774 47.1992 132.537 47.0907 133.132 46.7617C133.733 46.4277 134.067 45.9814 134.134 45.423C134.189 44.9717 134.076 44.5747 133.797 44.2321C133.518 43.8838 133.061 43.5941 132.425 43.3631L130.32 42.5948C129.163 42.1695 128.342 41.6271 127.854 40.9676C127.374 40.3031 127.187 39.5224 127.295 38.6254C127.383 37.8921 127.667 37.2681 128.147 36.7536C128.632 36.2397 129.252 35.8651 130.008 35.6297C130.768 35.3951 131.606 35.3327 132.519 35.4427C133.806 35.5974 134.781 36.001 135.447 36.6533C136.118 37.3064 136.553 38.1141 136.752 39.0766Z" fill="white"/>
<path d="M150.647 35.1347L145.447 51.7966L143.527 51.1974L148.727 34.5354L150.647 35.1347Z" fill="white"/>
<path d="M157.971 57.4443C156.933 56.8799 156.156 56.1376 155.641 55.2173C155.131 54.2998 154.898 53.2774 154.941 52.15C154.99 51.0254 155.337 49.869 155.983 48.6809C156.634 47.4828 157.42 46.5551 158.34 45.8976C159.265 45.2428 160.251 44.88 161.299 44.8091C162.351 44.7409 163.396 44.989 164.435 45.5534C165.473 46.1178 166.247 46.8588 166.757 47.7763C167.273 48.6965 167.504 49.7215 167.453 50.8511C167.407 51.9835 167.058 53.1487 166.406 54.3468C165.761 55.5348 164.977 56.4538 164.054 57.1036C163.137 57.7561 162.152 58.1164 161.1 58.1846C160.052 58.2555 159.01 58.0087 157.971 57.4443ZM158.834 55.8569C159.623 56.2856 160.382 56.4362 161.111 56.3086C161.84 56.181 162.506 55.8543 163.108 55.3283C163.711 54.8023 164.221 54.1549 164.639 53.3862C165.057 52.6174 165.324 51.8346 165.441 51.0377C165.557 50.2408 165.472 49.4993 165.185 48.8132C164.898 48.127 164.361 47.5696 163.572 47.1409C162.783 46.7121 162.023 46.564 161.291 46.6966C160.56 46.8292 159.891 47.1609 159.285 47.6919C158.68 48.2229 158.168 48.8727 157.75 49.6415C157.333 50.4103 157.067 51.1906 156.953 51.9825C156.84 52.7744 156.928 53.5109 157.217 54.1921C157.506 54.8732 158.045 55.4281 158.834 55.8569Z" fill="white"/>
<path d="M186.629 62.4161L174.203 68.7733L172.698 67.3885L177.998 54.4766L179.604 55.9537L175.201 66.0777L175.301 66.17L185.023 60.939L186.629 62.4161Z" fill="white"/>
<path d="M185.538 82.6385C184.839 81.5887 184.467 80.5288 184.423 79.4588C184.388 78.3904 184.651 77.3717 185.214 76.4028C185.785 75.4354 186.628 74.5801 187.744 73.8367C188.86 73.0934 189.979 72.6415 191.101 72.4812C192.231 72.3225 193.279 72.4506 194.245 72.8654C195.219 73.2818 196.033 73.9818 196.688 74.9654C197.066 75.5329 197.345 76.1563 197.524 76.8355C197.704 77.5148 197.732 78.2231 197.609 78.9606C197.49 79.6949 197.173 80.4283 196.658 81.1609C196.142 81.8935 195.376 82.5983 194.359 83.2756L193.65 83.748L188.056 75.3497L189.503 74.3858L193.963 81.0818C194.578 80.6723 195.044 80.184 195.363 79.6168C195.685 79.0544 195.835 78.4556 195.815 77.8205C195.798 77.1902 195.588 76.5724 195.185 75.9671C194.741 75.3003 194.191 74.8336 193.535 74.5671C192.888 74.3021 192.215 74.2143 191.517 74.3039C190.819 74.3934 190.169 74.6382 189.569 75.0382L188.604 75.6808C187.781 76.2289 187.178 76.8353 186.795 77.5002C186.42 78.1666 186.253 78.8544 186.295 79.5636C186.342 80.2696 186.591 80.9607 187.042 81.6369C187.334 82.0767 187.661 82.433 188.02 82.7057C188.387 82.9801 188.782 83.1638 189.206 83.257C189.635 83.3469 190.085 83.3369 190.558 83.2268L191.181 85.1464C190.52 85.3415 189.847 85.3767 189.163 85.252C188.484 85.1241 187.831 84.8417 187.206 84.405C186.585 83.965 186.029 83.3762 185.538 82.6385Z" fill="white"/>
<path d="M188.686 137.416L203.213 147.092L202.041 148.851L189.075 140.214L184.577 146.967L183.016 145.928L188.686 137.416Z" fill="white"/>
<path d="M173.791 155.295C174.666 154.5 175.623 154.011 176.661 153.827C177.696 153.648 178.738 153.764 179.788 154.177C180.834 154.593 181.811 155.302 182.721 156.303C183.637 157.312 184.255 158.359 184.573 159.445C184.886 160.534 184.904 161.584 184.626 162.597C184.344 163.613 183.766 164.518 182.891 165.313C182.016 166.107 181.062 166.594 180.027 166.774C178.989 166.957 177.945 166.839 176.895 166.418C175.841 166.002 174.856 165.289 173.939 164.279C173.03 163.278 172.42 162.235 172.11 161.151C171.796 160.07 171.78 159.021 172.062 158.005C172.34 156.993 172.916 156.089 173.791 155.295ZM175.006 156.632C174.342 157.236 173.95 157.903 173.83 158.633C173.71 159.363 173.8 160.1 174.098 160.842C174.396 161.584 174.839 162.279 175.428 162.927C176.016 163.575 176.667 164.085 177.381 164.457C178.096 164.829 178.824 164.993 179.566 164.948C180.308 164.903 181.012 164.579 181.676 163.975C182.341 163.372 182.731 162.703 182.847 161.968C182.962 161.234 182.869 160.493 182.567 159.746C182.265 159 181.82 158.303 181.232 157.655C180.643 157.007 179.994 156.5 179.284 156.132C178.573 155.764 177.849 155.604 177.111 155.653C176.372 155.702 175.671 156.028 175.006 156.632Z" fill="white"/>
<path d="M159.661 180.716L157.749 166.891L159.553 165.925L170 175.181L168.076 176.211L159.966 168.72L159.846 168.784L161.585 179.687L159.661 180.716Z" fill="white"/>
<path d="M140.925 173.029C142.147 172.715 143.27 172.713 144.295 173.024C145.315 173.342 146.19 173.926 146.92 174.777C147.645 175.634 148.175 176.712 148.51 178.011C148.844 179.309 148.902 180.515 148.684 181.627C148.462 182.746 147.996 183.694 147.287 184.469C146.573 185.251 145.644 185.79 144.499 186.085C143.839 186.255 143.159 186.313 142.458 186.258C141.758 186.204 141.08 185.997 140.424 185.638C139.769 185.285 139.181 184.744 138.659 184.016C138.137 183.288 137.724 182.332 137.419 181.149L137.207 180.324L146.979 177.807L147.412 179.491L139.621 181.497C139.805 182.213 140.113 182.814 140.544 183.302C140.969 183.791 141.484 184.13 142.091 184.32C142.692 184.511 143.344 184.516 144.048 184.335C144.824 184.135 145.446 183.77 145.913 183.239C146.377 182.714 146.681 182.108 146.827 181.419C146.972 180.731 146.955 180.037 146.775 179.338L146.485 178.216C146.239 177.258 145.865 176.489 145.363 175.908C144.857 175.335 144.263 174.951 143.579 174.757C142.897 174.569 142.163 174.577 141.376 174.779C140.864 174.911 140.42 175.102 140.045 175.351C139.665 175.607 139.361 175.92 139.133 176.29C138.907 176.665 138.768 177.094 138.717 177.576L136.699 177.533C136.733 176.844 136.921 176.197 137.264 175.592C137.608 174.993 138.09 174.47 138.708 174.023C139.328 173.582 140.067 173.251 140.925 173.029Z" fill="white"/>
<path d="M128.181 175.408L129.005 188.473L126.998 188.599L126.174 175.534L128.181 175.408ZM128.122 190.715C128.513 190.69 128.859 190.802 129.16 191.05C129.454 191.299 129.613 191.611 129.637 191.985C129.661 192.36 129.542 192.689 129.281 192.973C129.014 193.257 128.685 193.412 128.294 193.436C127.903 193.461 127.56 193.349 127.265 193.1C126.965 192.851 126.803 192.54 126.779 192.166C126.755 191.791 126.877 191.462 127.144 191.178C127.405 190.894 127.731 190.739 128.122 190.715Z" fill="white"/>
<path d="M107.248 184.62L109.103 184.328C109.18 184.64 109.311 184.951 109.497 185.259C109.677 185.573 109.942 185.845 110.292 186.076C110.642 186.307 111.107 186.458 111.688 186.527C112.484 186.623 113.169 186.52 113.743 186.217C114.311 185.919 114.629 185.491 114.696 184.932C114.756 184.436 114.622 184.022 114.296 183.691C113.969 183.36 113.434 183.052 112.69 182.768L110.818 182.062C109.69 181.64 108.876 181.104 108.376 180.455C107.875 179.811 107.68 179.035 107.789 178.126C107.879 177.382 108.173 176.742 108.672 176.207C109.166 175.671 109.814 175.28 110.616 175.033C111.419 174.786 112.325 174.723 113.334 174.845C114.66 175.004 115.723 175.424 116.522 176.104C117.322 176.784 117.77 177.691 117.869 178.824L115.916 179.07C115.82 178.349 115.542 177.783 115.082 177.373C114.616 176.962 113.974 176.707 113.156 176.609C112.226 176.497 111.463 176.606 110.868 176.935C110.267 177.269 109.933 177.715 109.866 178.273C109.811 178.725 109.924 179.122 110.203 179.464C110.482 179.812 110.939 180.102 111.575 180.333L113.68 181.102C114.837 181.527 115.658 182.069 116.146 182.729C116.626 183.393 116.813 184.174 116.705 185.071C116.617 185.804 116.333 186.428 115.853 186.943C115.368 187.457 114.748 187.831 113.992 188.067C113.232 188.301 112.394 188.364 111.481 188.254C110.194 188.099 109.219 187.695 108.553 187.043C107.882 186.39 107.447 185.582 107.248 184.62Z" fill="white"/>
<path d="M93.3527 188.562L98.5529 171.9L100.473 172.499L95.2728 189.161L93.3527 188.562Z" fill="white"/>
<path d="M86.0288 166.252C87.0672 166.816 87.8439 167.559 88.359 168.479C88.8691 169.396 89.1023 170.419 89.0586 171.546C89.0099 172.671 88.6626 173.827 88.0168 175.015C87.3655 176.213 86.5799 177.141 85.6599 177.799C84.7349 178.453 83.7487 178.816 82.7013 178.887C81.6489 178.955 80.6035 178.707 79.5652 178.143C78.5269 177.578 77.7526 176.837 77.2425 175.92C76.7274 175 76.4956 173.975 76.547 172.845C76.5934 171.713 76.9423 170.548 77.5935 169.35C78.2393 168.161 79.0234 167.243 79.9457 166.593C80.863 165.94 81.8479 165.58 82.9002 165.512C83.9476 165.441 84.9905 165.688 86.0288 166.252ZM85.1659 167.839C84.3772 167.411 83.6183 167.26 82.8894 167.388C82.1604 167.515 81.4945 167.842 80.8917 168.368C80.2889 168.894 79.7786 169.541 79.3607 170.31C78.9428 171.079 78.6757 171.862 78.5594 172.659C78.4431 173.456 78.5283 174.197 78.815 174.883C79.1017 175.569 79.6394 176.127 80.4281 176.555C81.2168 176.984 81.977 177.132 82.7087 177C83.4404 176.867 84.109 176.535 84.7145 176.004C85.32 175.473 85.8317 174.824 86.2496 174.055C86.6675 173.286 86.9332 172.506 87.0468 171.714C87.1604 170.922 87.0725 170.185 86.7831 169.504C86.4937 168.823 85.9546 168.268 85.1659 167.839Z" fill="white"/>
<path d="M57.371 161.28L69.7965 154.923L71.3019 156.308L66.0019 169.22L64.3962 167.743L68.7991 157.619L68.6988 157.526L58.9768 162.757L57.371 161.28Z" fill="white"/>
<path d="M58.4622 141.058C59.1615 142.108 59.533 143.167 59.5767 144.237C59.6125 145.306 59.3489 146.325 58.7859 147.294C58.2151 148.261 57.3717 149.116 56.2557 149.86C55.1397 150.603 54.0206 151.055 52.8986 151.215C51.7686 151.374 50.7207 151.246 49.7549 150.831C48.7812 150.414 47.9667 149.714 47.3116 148.731C46.9336 148.163 46.6549 147.54 46.4755 146.861C46.2962 146.181 46.2681 145.473 46.3913 144.736C46.5098 144.001 46.8268 143.268 47.3424 142.535C47.858 141.803 48.6242 141.098 49.6409 140.421L50.3502 139.948L55.9442 148.347L54.4972 149.31L50.0371 142.614C49.4223 143.024 48.9557 143.512 48.6371 144.079C48.3154 144.642 48.1647 145.241 48.1849 145.876C48.202 146.506 48.4122 147.124 48.8153 147.729C49.2595 148.396 49.8092 148.863 50.4647 149.129C51.1123 149.394 51.7851 149.482 52.4833 149.392C53.1814 149.303 53.8307 149.058 54.4313 148.658L55.396 148.015C56.2188 147.467 56.8218 146.861 57.205 146.196C57.5803 145.53 57.7468 144.842 57.7046 144.133C57.6576 143.427 57.4089 142.736 56.9585 142.059C56.6655 141.62 56.3395 141.263 55.9803 140.991C55.6132 140.716 55.2178 140.532 54.7939 140.439C54.3653 140.349 53.9146 140.359 53.4418 140.47L52.8185 138.55C53.4805 138.355 54.1534 138.32 54.8372 138.444C55.5164 138.572 56.1687 138.855 56.7941 139.291C57.4148 139.731 57.9709 140.32 58.4622 141.058Z" fill="white"/>
</svg>
